<svg xmlns="http://www.w3.org/2000/svg" width="1040" height="1040" viewBox="0 0 1040 1040">
  <defs>
    <style>
      .cls-1 {
        stroke: #707070;
      }

      .cls-2 {
        fill: #fff;
      }

      .cls-3 {
        stroke: none;
      }

      .cls-4 {
        fill: none;
      }
    </style>
  </defs>
  <g id="Group_1" data-name="Group 1" transform="translate(-1207 -1331)">
    <g id="Rectangle_2" data-name="Rectangle 2" class="cls-1" transform="translate(1207 1331)">
      <rect class="cls-3" width="1040" height="1040" rx="99"/>
      <rect class="cls-4" x="0.5" y="0.5" width="1039" height="1039" rx="98.5"/>
    </g>
    <path id="social-media" class="cls-2" d="M13.138,476.793,329.87,687.986c10.8,6.641,22.349,6.728,33.264,0L679.865,476.793A30.252,30.252,0,0,0,693,452.047V240.912a30.252,30.252,0,0,0-13.138-24.746L363.134,5c-10.8-6.641-22.349-6.7-33.264,0L13.138,216.166A30.252,30.252,0,0,0,0,240.912V452.047a30.252,30.252,0,0,0,13.138,24.746ZM316.731,607.54,83.536,452.076l104.037-69.618,129.159,86.25Zm59.541,0V468.708l129.158-86.25,104.037,69.618ZM633.463,396.347,558.821,346.48l74.642-49.9ZM376.272,85.448l233.2,155.464L505.43,310.53,376.272,224.28ZM346.5,276.082l105.192,70.4L346.5,416.877,241.31,346.48ZM316.731,85.448V224.28L187.573,310.53,83.536,240.912ZM59.569,296.641v-.029l74.642,49.9L59.569,396.4Z" transform="translate(1380 1504)"/>
  </g>
</svg>
